<?xml version="1.0" standalone="no"?>
<!DOCTYPE svg PUBLIC "-//W3C//DTD SVG 20010904//EN"
 "http://www.w3.org/TR/2001/REC-SVG-20010904/DTD/svg10.dtd">
<svg version="1.0" xmlns="http://www.w3.org/2000/svg"
 width="300.000000pt" height="300.000000pt" viewBox="0 0 300.000000 300.000000"
 preserveAspectRatio="xMidYMid meet">
<metadata>
Created by potrace 1.11, written by Peter Selinger 2001-2013
</metadata>
<g transform="translate(0.000000,300.000000) scale(0.100000,-0.100000)"
fill="#000000" stroke="none">
<path d="M1275 2775 c-14 -13 -25 -29 -25 -35 0 -20 20 -50 34 -50 12 0 12 -9
-1 -57 -13 -51 -21 -109 -22 -170 -1 -27 -23 -30 -63 -9 -16 8 -28 11 -28 6 0
-14 35 -30 64 -30 22 0 26 -5 27 -27 1 -73 10 -161 20 -196 6 -22 9 -40 7 -41
-53 -25 -63 -36 -63 -75 0 -21 -3 -37 -7 -35 -15 9 -69 -28 -127 -87 -56 -56
-123 -170 -133 -224 -2 -11 -17 -27 -33 -35 -73 -37 -105 -77 -107 -133 -2
-45 24 -85 67 -103 19 -7 37 -19 41 -25 4 -8 3 -9 -4 -5 -8 4 -10 -5 -6 -31 2
-21 6 -67 9 -103 8 -99 52 -265 97 -360 66 -138 129 -216 209 -261 57 -32 104
-42 192 -41 37 1 67 -2 68 -6 1 -4 2 -29 3 -57 l3 -50 -48 -24 c-43 -21 -149
-118 -149 -136 0 -4 -8 -17 -17 -28 -15 -19 -28 -22 -83 -21 -112 1 -192 -48
-228 -141 -21 -53 -15 -141 10 -172 13 -17 1198 -19 1198 -3 0 6 -20 39 -45
75 -39 55 -43 65 -27 65 11 0 30 -6 43 -13 24 -12 74 -57 64 -57 -3 0 0 -10 7
-22 7 -13 11 -31 9 -40 -2 -16 8 -18 89 -18 l91 0 -4 45 c-5 54 -60 169 -96
202 -42 37 -89 64 -124 71 -41 8 -122 8 -167 0 -33 -6 -37 -3 -75 45 -45 58
-139 126 -212 153 -60 22 -55 17 -59 56 -14 129 -15 125 35 162 69 51 120 113
162 196 13 25 22 55 21 62 -1 5 3 8 9 8 5 0 8 3 5 8 -2 4 0 30 6 57 10 53 16
195 8 195 -3 0 -6 44 -7 98 -7 301 -36 450 -113 583 -56 96 -162 173 -242 174
-20 0 -36 2 -35 5 0 3 -2 15 -7 27 -5 17 -16 23 -49 25 -37 3 -44 7 -59 39 -9
20 -19 47 -21 60 -2 13 -6 31 -9 39 -21 60 -28 114 -16 121 6 4 15 6 19 3 9
-5 49 44 49 62 0 17 -29 46 -40 39 -5 -3 -11 -1 -15 5 -3 5 -15 10 -25 10 -17
0 -19 6 -16 48 2 26 4 54 5 63 1 9 12 20 25 23 46 11 39 88 -9 106 -39 15 -54
12 -80 -15z m126 -264 c23 -19 24 -19 5 -40 -11 -12 -29 -21 -41 -21 -18 0
-21 6 -23 40 -2 34 0 40 16 40 11 0 30 -9 43 -19z m-214 -2343 c-2 -7 -15 -41
-27 -76 -23 -62 -23 -62 -36 -36 -20 38 -17 77 6 102 22 24 65 31 57 10z"/>
<path d="M1209 2525 c-15 -8 -30 -22 -33 -32 -6 -14 -2 -13 14 5 11 12 27 22
35 22 8 0 17 5 20 10 9 14 -5 12 -36 -5z"/>
</g>
</svg>
